# xmcd
#
# Track frame offsets:
# 150
# 13327
# 28955
# 44082
# 56172
# 68185
# 79495
# 93502
# 107245
# 116952
# 128460
# 140917
# 157580
# 167642
# 180395
# 193462
# 204845
# 215887
# 227377
# 240775
#
# Disc length: 3414 seconds
#
#
# Revision: 2
# Processed by: cddbd v1.5.1PL2 Copyright (c) Steve Scherf et al.
# Submitted via: FreeRIP 2.942 
#
DISCID=240d5414
DTITLE=Peter Zinsli - s'Bescht vom Beschte
DYEAR=1986
DGENRE=Switzerland
TTITLE0=Ruhn, abträtä
TTITLE1=Nello's Autofahrt in Uster
TTITLE2=Martheli-Shottish
TTITLE3=Miar Göhnd na lang nid hei
TTITLE4=In dr Monterosahüttä
TTITLE5=De tiffig Sepp
TTITLE6=Uf der Nachtwach
TTITLE7=Zogä am Bogä
TTITLE8=Abschied
TTITLE9=De Seppel
TTITLE10=D'Akrobatik-Mia vo Tschiertscha
TTITLE11=Furmias aint il chül
TTITLE12=Im Calanda-Gärtli z'Chur
TTITLE13=Am Mikrofon, Roger Thieriet
TTITLE14=3 Tag Scharfa
TTITLE15=Üebe und rasiere dehei
TTITLE16=Niklaus schwinget
TTITLE17=Altwyber-Summer
TTITLE18=Bündner-Meitli
TTITLE19=Dr Wentalaschieber
EXTD=
EXTT0=
EXTT1=
EXTT2=
EXTT3=
EXTT4=
EXTT5=
EXTT6=
EXTT7=
EXTT8=
EXTT9=
EXTT10=
EXTT11=
EXTT12=
EXTT13=
EXTT14=
EXTT15=
EXTT16=
EXTT17=
EXTT18=
EXTT19=
PLAYORDER=
